{
    "accessors": {
        "accessors_accessor_buffer_Cube_0": {
            "bufferView": "bufferViews_bufferView_buffer_Cube_0",
            "byteOffset": 0,
            "byteStride": 2,
            "componentType": 5123,
            "count": 36,
            "max": [
                23
            ],
            "min": [
                0
            ],
            "name": "accessor_buffer_Cube_0",
            "type": "SCALAR"
        },
        "accessors_accessor_buffer_Cube_NORMAL_0": {
            "bufferView": "bufferViews_bufferView_buffer_Cube_NORMAL_0",
            "byteOffset": 0,
            "byteStride": 12,
            "componentType": 5126,
            "count": 24,
            "max": [
                0.9999999403953552,
                1.0,
                1.0
            ],
            "min": [
                -0.9999999403953552,
                -1.0,
                -1.0
            ],
            "name": "accessor_buffer_Cube_NORMAL_0",
            "type": "VEC3"
        },
        "accessors_accessor_buffer_Cube_POSITION_0": {
            "bufferView": "bufferViews_bufferView_buffer_Cube_POSITION_0",
            "byteOffset": 0,
            "byteStride": 12,
            "componentType": 5126,
            "count": 24,
            "max": [
                2.2986128330230713,
                4.277728080749512,
                3.5149693489074707
            ],
            "min": [
                -2.788759708404541,
                -2.8614773750305176,
                0.0
            ],
            "name": "accessor_buffer_Cube_POSITION_0",
            "type": "VEC3"
        },
        "accessors_accessor_buffer_Cube_TEXCOORD_0_0": {
            "bufferView": "bufferViews_bufferView_buffer_Cube_TEXCOORD_0_0",
            "byteOffset": 0,
            "byteStride": 8,
            "componentType": 5126,
            "count": 24,
            "max": [
                0.9930019378662109,
                0.9944177591241896
            ],
            "min": [
                0.0069980379194021225,
                0.005582213401794434
            ],
            "name": "accessor_buffer_Cube_TEXCOORD_0_0",
            "type": "VEC2"
        }
    },
    "asset": {
        "profile": {
            "api": "WebGL",
            "version": "1.0"
        },
        "version": "1.0"
    },
    "bufferViews": {
        "bufferViews_bufferView_buffer_Cube_0": {
            "buffer": "buffers_buffer_blank_room",
            "byteLength": 72,
            "byteOffset": 768,
            "name": "bufferView_buffer_Cube_0",
            "target": 34963
        },
        "bufferViews_bufferView_buffer_Cube_NORMAL_0": {
            "buffer": "buffers_buffer_blank_room",
            "byteLength": 288,
            "byteOffset": 288,
            "name": "bufferView_buffer_Cube_NORMAL_0",
            "target": 34962
        },
        "bufferViews_bufferView_buffer_Cube_POSITION_0": {
            "buffer": "buffers_buffer_blank_room",
            "byteLength": 288,
            "byteOffset": 0,
            "name": "bufferView_buffer_Cube_POSITION_0",
            "target": 34962
        },
        "bufferViews_bufferView_buffer_Cube_TEXCOORD_0_0": {
            "buffer": "buffers_buffer_blank_room",
            "byteLength": 192,
            "byteOffset": 576,
            "name": "bufferView_buffer_Cube_TEXCOORD_0_0",
            "target": 34962
        }
    },
    "buffers": {
        "buffers_buffer_blank_room": {
            "byteLength": 840,
            "name": "buffer_blank_room",
            "type": "arraybuffer",
            "uri": "buffer_blank_room.bin"
        }
    },
    "glExtensionsUsed": [],
    "images": {
        "images_Room Albedo": {
            "mimeType": "image/png",
            "name": "Room Albedo",
            "uri": "data:image/png;base64,"
        }
    },
    "materials": {
        "materials_Room Albedo Mat": {
            "name": "Room Albedo Mat",
            "technique": "techniques_Room Albedo Mat",
            "values": {
                "diffuse_color": [
                    0.800000011920929,
                    0.800000011920929,
                    0.800000011920929
                ],
                "samp0": "texture_Room Abbedo Mat Tex"
            }
        }
    },
    "meshes": {
        "meshes_Cube": {
            "name": "Cube",
            "primitives": [
                {
                    "attributes": {
                        "NORMAL": "accessors_accessor_buffer_Cube_NORMAL_0",
                        "POSITION": "accessors_accessor_buffer_Cube_POSITION_0",
                        "TEXCOORD_0": "accessors_accessor_buffer_Cube_TEXCOORD_0_0"
                    },
                    "indices": "accessors_accessor_buffer_Cube_0",
                    "material": "materials_Room Albedo Mat",
                    "mode": 4
                }
            ]
        }
    },
    "nodes": {
        "nodes_Room": {
            "meshes": [
                "meshes_Cube"
            ],
            "name": "Room",
            "rotation": [
                0.0,
                0.0,
                0.0,
                1.0
            ],
            "scale": [
                1.0,
                1.0,
                1.0
            ],
            "translation": [
                0.0,
                0.0,
                0.0
            ]
        },
        "nodes_Scene_root": {
            "children": [
                "nodes_Room"
            ],
            "matrix": [
                -1.0,
                0.0,
                0.0,
                0.0,
                0.0,
                0.0,
                1.0,
                0.0,
                0.0,
                1.0,
                0.0,
                0.0,
                0.0,
                0.0,
                0.0,
                1.0
            ],
            "name": "Scene_root"
        }
    },
    "programs": {
        "programs_Room Albedo Mat": {
            "attributes": [
                "att0",
                "bl_Vertex",
                "bl_Normal"
            ],
            "fragmentShader": "shaders_Room Albedo MatFS",
            "name": "Room Albedo Mat",
            "vertexShader": "shaders_Room Albedo MatVS"
        }
    },
    "samplers": {
        "samplers_Room Abbedo Mat Tex": {
            "magFilter": 9729,
            "minFilter": 9987,
            "name": "Room Abbedo Mat Tex",
            "wrapS": 10497,
            "wrapT": 10497
        }
    },
    "scene": "scenes_Scene",
    "scenes": {
        "scenes_Scene": {
            "extras": {
                "background_color": [
                    0.05087608844041824,
                    0.05087608844041824,
                    0.05087608844041824
                ],
                "frames_per_second": 24
            },
            "name": "Scene",
            "nodes": [
                "nodes___scene_root_0_"
            ]
        }
    },
    "shaders": {
        "shaders_Room Albedo MatFS": {
            "name": "Room Albedo MatFS",
            "type": 35632,
            "uri": "Room_Albedo_MatFS.glsl"
        },
        "shaders_Room Albedo MatVS": {
            "name": "Room Albedo MatVS",
            "type": 35633,
            "uri": "Room_Albedo_MatVS.glsl"
        }
    },
    "techniques": {
        "techniques_Room Albedo Mat": {
            "attributes": {
                "att0": "att0",
                "bl_Normal": "bl_Normal",
                "bl_Vertex": "bl_Vertex"
            },
            "name": "Room Albedo Mat",
            "parameters": {
                "att0": {
                    "semantic": "TEXCOORD_0",
                    "type": 35664
                },
                "bl_ModelViewMatrix": {
                    "semantic": "MODELVIEW",
                    "type": 35676
                },
                "bl_Normal": {
                    "semantic": "NORMAL",
                    "type": 35665
                },
                "bl_NormalMatrix": {
                    "semantic": "MODELVIEWINVERSETRANSPOSE",
                    "type": 35675
                },
                "bl_ProjectionMatrix": {
                    "semantic": "PROJECTION",
                    "type": 35676
                },
                "bl_Vertex": {
                    "semantic": "POSITION",
                    "type": 35666
                },
                "diffuse_color": {
                    "type": 35665,
                    "value": [
                        0.800000011920929,
                        0.800000011920929,
                        0.800000011920929
                    ]
                },
                "mist_color": {
                    "type": 35666,
                    "value": [
                        0.05087608844041824,
                        0.05087608844041824,
                        0.05087608844041824
                    ]
                },
                "mist_depth": {
                    "type": 5126,
                    "value": 25.0
                },
                "mist_falloff": {
                    "type": 5126,
                    "value": null
                },
                "mist_intensity": {
                    "type": 5126,
                    "value": null
                },
                "mist_start": {
                    "type": 5126,
                    "value": 5.0
                },
                "mist_use_mist": {
                    "type": 5126,
                    "value": null
                },
                "samp0": {
                    "type": 35678,
                    "value": "texture_Room Abbedo Mat Tex"
                }
            },
            "program": "programs_Room Albedo Mat",
            "uniforms": {
                "bl_ModelViewMatrix": "bl_ModelViewMatrix",
                "bl_NormalMatrix": "bl_NormalMatrix",
                "bl_ProjectionMatrix": "bl_ProjectionMatrix",
                "samp0": "samp0",
                "unf13": "diffuse_color",
                "unf24": "mist_use_mist",
                "unf25": "mist_start",
                "unf26": "mist_depth",
                "unf27": "mist_falloff",
                "unf28": "mist_intensity",
                "unf32": "mist_color"
            }
        }
    },
    "textures": {
        "textures_Room Abbedo Mat Tex": {
            "format": 6408,
            "internalFormat": 6408,
            "name": "Room Abbedo Mat Tex",
            "sampler": "samplers_Room Abbedo Mat Tex",
            "source": "images_Room Albedo"
        }
    }
}
