# Blender v2.78 (sub 0) OBJ File: 'Blank scene.blend'
# www.blender.org
mtllib blank_room.mtl
o Room_Cube
v -2.788760 0.000000 2.861477
v -2.788760 3.514969 2.861477
v -2.788760 0.000000 -4.277728
v -2.788760 3.514969 -4.277728
v 2.298613 0.000000 2.861477
v 2.298613 3.514969 2.861477
v 2.298613 0.000000 -4.277728
v 2.298613 3.514969 -4.277728
vt 0.9930 0.4041
vt 0.7470 0.0056
vt 0.9930 0.0056
vt 0.2670 0.7104
vt 0.5130 0.9944
vt 0.2670 0.9944
vt 0.2530 0.8138
vt 0.0070 0.4153
vt 0.2530 0.4153
vt 0.5130 0.6993
vt 0.2670 0.4153
vt 0.5130 0.4153
vt 0.7330 0.4041
vt 0.3770 0.0056
vt 0.7330 0.0056
vt 0.0070 0.0056
vt 0.3630 0.4041
vt 0.0070 0.4041
vt 0.7470 0.4041
vt 0.5130 0.7104
vt 0.0070 0.8138
vt 0.2670 0.6993
vt 0.3770 0.4041
vt 0.3630 0.0056
vn 1.0000 0.0000 0.0000
vn 0.0000 0.0000 1.0000
vn -1.0000 0.0000 0.0000
vn 0.0000 0.0000 -1.0000
vn 0.0000 1.0000 0.0000
vn 0.0000 -1.0000 0.0000
usemtl Room_Albedo_Mat
s off
f 3/1/1 2/2/1 1/3/1
f 7/4/2 4/5/2 3/6/2
f 5/7/3 8/8/3 7/9/3
f 1/10/4 6/11/4 5/12/4
f 1/13/5 7/14/5 3/15/5
f 6/16/6 4/17/6 8/18/6
f 3/1/1 4/19/1 2/2/1
f 7/4/2 8/20/2 4/5/2
f 5/7/3 6/21/3 8/8/3
f 1/10/4 2/22/4 6/11/4
f 1/13/5 5/23/5 7/14/5
f 6/16/6 2/24/6 4/17/6
