# Blender v2.78 (sub 0) OBJ File: 'Blank scene.blend'
# www.blender.org
mtllib socle.mtl
o Block_Cube.001
v -0.256604 0.000005 -1.289227
v -0.256604 1.000045 -1.289227
v -0.256604 0.000005 -1.789268
v -0.256604 1.000045 -1.789268
v 0.243436 0.000005 -1.289227
v 0.243436 1.000045 -1.289227
v 0.243436 0.000005 -1.789268
v 0.243436 1.000045 -1.789268
vt 0.0123 0.0096
vt 0.3210 0.4904
vt 0.0123 0.4904
vt 0.6543 0.4904
vt 0.3457 0.0096
vt 0.6543 0.0096
vt 0.3210 0.9904
vt 0.0123 0.5096
vt 0.3210 0.5096
vt 0.6790 0.0096
vt 0.9877 0.4904
vt 0.6790 0.4904
vt 0.3457 0.7500
vt 0.6543 0.5096
vt 0.6543 0.7500
vt 0.3210 0.0096
vt 0.3457 0.4904
vt 0.0123 0.9904
vt 0.9877 0.0096
vt 0.3457 0.5096
vn -1.0000 0.0000 0.0000
vn 0.0000 0.0000 -1.0000
vn 1.0000 0.0000 0.0000
vn 0.0000 0.0000 1.0000
vn 0.0000 1.0000 0.0000
usemtl Socle_Albedo_Mat
s off
f 2/1/1 3/2/1 1/3/1
f 4/4/2 7/5/2 3/6/2
f 8/7/3 5/8/3 7/9/3
f 6/10/4 1/11/4 5/12/4
f 4/13/5 6/14/5 8/15/5
f 2/1/1 4/16/1 3/2/1
f 4/4/2 8/17/2 7/5/2
f 8/7/3 6/18/3 5/8/3
f 6/10/4 2/19/4 1/11/4
f 4/13/5 2/20/5 6/14/5
