# Blender v2.78 (sub 0) OBJ File: 'Blank scene.blend'
# www.blender.org
mtllib test_room.mtl
o Room_Cube
v -0.256604 0.000005 -1.289227
v -0.256604 1.000045 -1.289227
v -0.256604 0.000005 -1.789268
v -0.256604 1.000045 -1.789268
v 0.243436 0.000005 -1.289227
v 0.243436 1.000045 -1.289227
v 0.243436 0.000005 -1.789268
v 0.243436 1.000045 -1.789268
v -2.551765 0.000000 2.861477
v -2.551765 3.514969 2.861477
v -2.551765 0.000000 -4.277728
v -2.551765 3.514969 -4.277728
v 2.535608 0.000000 2.861477
v 2.535608 3.514969 2.861477
v 2.535608 0.000000 -4.277728
v 2.535608 3.514969 -4.277728
v -0.469116 3.410720 -0.274402
v -0.546971 3.468129 -0.196547
v -0.469116 3.410720 -1.205598
v -0.546971 3.468129 -1.283453
v 0.462081 3.410720 -0.274402
v 0.539936 3.468129 -0.196547
v 0.462081 3.410720 -1.205598
v 0.539936 3.468129 -1.283453
v -0.546971 3.410720 -1.283453
v -0.546971 3.410720 -0.196547
v 0.539936 3.410720 -1.283453
v 0.539936 3.410720 -0.196547
v -0.469116 3.448172 -1.205598
v -0.469116 3.448172 -0.274402
v 0.462081 3.448172 -1.205598
v 0.462081 3.448172 -0.274402
v 0.928094 0.003210 2.855149
v 0.928094 2.203222 2.855149
v 0.988129 0.009678 2.764867
v 0.988129 2.136356 2.764867
v 1.928087 0.003210 2.855149
v 1.928087 2.203222 2.855149
v 1.868052 0.009678 2.764867
v 1.868052 2.136356 2.764867
v 0.928094 2.203222 2.764867
v 0.928094 0.003210 2.764867
v 1.928087 0.003210 2.764867
v 1.928087 2.203222 2.764867
v 0.988129 2.136356 2.797795
v 0.988129 0.009678 2.797795
v 1.868052 0.009678 2.797795
v 1.868052 2.136356 2.797795
v 1.697471 1.068777 2.741889
v 1.672279 1.061977 2.741678
v 1.647784 1.049495 2.741539
v 1.801623 1.068372 2.743077
v 1.649279 1.036685 2.749200
v 1.803118 1.055563 2.750737
v 1.649109 1.036853 2.764198
v 1.802947 1.055730 2.765735
v 1.647443 1.049829 2.771535
v 1.801282 1.068706 2.773073
v 1.645948 1.062638 2.763875
v 1.799786 1.081515 2.765412
v 1.646118 1.062471 2.748877
v 1.799957 1.081348 2.750414
v 1.722987 1.072931 2.742132
v 1.748751 1.075070 2.742401
v 1.774838 1.074562 2.742703
v 1.776333 1.061752 2.750364
v 1.750246 1.062260 2.750062
v 1.724483 1.060122 2.749793
v 1.698966 1.055968 2.749550
v 1.673774 1.049168 2.749339
v 1.776163 1.061920 2.765362
v 1.750075 1.062427 2.765060
v 1.724312 1.060289 2.764791
v 1.698796 1.056135 2.764548
v 1.673604 1.049335 2.764337
v 1.774497 1.074896 2.772700
v 1.748410 1.075404 2.772398
v 1.722646 1.073265 2.772129
v 1.697130 1.069111 2.771885
v 1.671938 1.062311 2.771675
v 1.773002 1.087705 2.765039
v 1.746915 1.088213 2.764737
v 1.721151 1.086074 2.764468
v 1.695635 1.081921 2.764224
v 1.670443 1.075120 2.764014
v 1.773173 1.087538 2.750041
v 1.747085 1.088046 2.749739
v 1.721322 1.085907 2.749470
v 1.695805 1.081753 2.749226
v 1.670614 1.074953 2.749016
vt 0.3024 0.6654
vt 0.3024 0.7335
vt 0.2674 0.7335
vt 0.2674 0.6654
vt 0.6725 0.5841
vt 0.6725 0.6522
vt 0.6374 0.6522
vt 0.6374 0.5841
vt 0.3515 0.6654
vt 0.3515 0.7335
vt 0.3164 0.7335
vt 0.3164 0.6654
vt 0.6865 0.6522
vt 0.6865 0.5841
vt 0.7215 0.5841
vt 0.7215 0.6522
vt 0.3023 0.7812
vt 0.2674 0.7812
vt 0.2674 0.7471
vt 0.3023 0.7472
vt 0.7467 0.9932
vt 0.7467 0.5068
vt 0.9930 0.5068
vt 0.9930 0.9932
vt 0.6234 0.5070
vt 0.6234 0.8536
vt 0.3771 0.8536
vt 0.3771 0.5070
vt 0.7467 0.4932
vt 0.7467 0.0068
vt 0.9930 0.0068
vt 0.9930 0.4932
vt 0.2533 0.5069
vt 0.2533 0.8535
vt 0.0070 0.8535
vt 0.0070 0.5069
vt 0.7327 0.0070
vt 0.7327 0.4934
vt 0.3771 0.4932
vt 0.3771 0.0068
vt 0.0070 0.4933
vt 0.0070 0.0069
vt 0.3631 0.0068
vt 0.3631 0.4932
vt 0.7031 0.9034
vt 0.6991 0.9034
vt 0.6991 0.8293
vt 0.7031 0.8293
vt 0.2917 0.8689
vt 0.2877 0.8689
vt 0.2877 0.7949
vt 0.2917 0.7949
vt 0.6641 0.9033
vt 0.6601 0.9033
vt 0.6601 0.8293
vt 0.6641 0.8293
vt 0.6414 0.9033
vt 0.6374 0.9033
vt 0.6374 0.8293
vt 0.6414 0.8293
vt 0.3579 0.8347
vt 0.3579 0.8982
vt 0.3553 0.8982
vt 0.3553 0.8347
vt 0.6641 0.6658
vt 0.6641 0.8157
vt 0.6578 0.8157
vt 0.6578 0.6658
vt 0.3163 0.8159
vt 0.3163 0.7525
vt 0.3218 0.7471
vt 0.3218 0.8212
vt 0.3553 0.8158
vt 0.3553 0.7524
vt 0.3607 0.7471
vt 0.3607 0.8211
vt 0.6796 0.7346
vt 0.6796 0.6711
vt 0.6851 0.6658
vt 0.6851 0.7399
vt 0.3412 0.7524
vt 0.3412 0.8158
vt 0.3358 0.8211
vt 0.3358 0.7471
vt 0.7026 0.5704
vt 0.6374 0.5704
vt 0.6374 0.5070
vt 0.7026 0.5070
vt 0.7192 0.5070
vt 0.7192 0.5704
vt 0.7166 0.5704
vt 0.7166 0.5070
vt 0.3189 0.8348
vt 0.3189 0.8983
vt 0.3163 0.8983
vt 0.3163 0.8348
vt 0.3358 0.8982
vt 0.3358 0.8347
vt 0.3384 0.8347
vt 0.3384 0.8982
vt 0.3594 0.6518
vt 0.3594 0.5069
vt 0.3617 0.5069
vt 0.3617 0.6518
vt 0.6438 0.6658
vt 0.6438 0.8157
vt 0.6374 0.8157
vt 0.6374 0.6658
vt 0.6851 0.7535
vt 0.6851 0.8215
vt 0.6788 0.8215
vt 0.6788 0.7535
vt 0.2737 0.7949
vt 0.2737 0.8628
vt 0.2674 0.8628
vt 0.2674 0.7949
vt 0.7215 0.6704
vt 0.7215 0.8153
vt 0.7173 0.8157
vt 0.7173 0.6658
vt 0.0233 0.9311
vt 0.0233 0.8712
vt 0.0238 0.8671
vt 0.0238 0.9352
vt 0.7173 0.8934
vt 0.7173 0.8334
vt 0.7220 0.8293
vt 0.7220 0.8974
vt 0.7033 0.6663
vt 0.7033 0.8111
vt 0.6991 0.8157
vt 0.6991 0.6658
vt 0.3290 0.5069
vt 0.3290 0.6518
vt 0.2674 0.6518
vt 0.2674 0.5069
vt 0.0070 0.9269
vt 0.0070 0.8671
vt 0.0093 0.8671
vt 0.0093 0.9269
vt 0.6788 0.8950
vt 0.6788 0.8351
vt 0.6811 0.8352
vt 0.6811 0.8950
vt 0.3453 0.5069
vt 0.3453 0.6518
vt 0.3430 0.6518
vt 0.3430 0.5069
vt 0.0875 0.8741
vt 0.0875 0.8759
vt 0.0865 0.8759
vt 0.0865 0.8741
vt 0.0379 0.8706
vt 0.0381 0.8689
vt 0.0390 0.8689
vt 0.0388 0.8706
vt 0.0397 0.8671
vt 0.0406 0.8671
vt 0.0400 0.8689
vt 0.0724 0.8671
vt 0.0718 0.8689
vt 0.0709 0.8689
vt 0.0715 0.8671
vt 0.0378 0.8724
vt 0.0387 0.8724
vt 0.1015 0.8689
vt 0.1015 0.8671
vt 0.1026 0.8671
vt 0.1026 0.8689
vt 0.0875 0.8706
vt 0.0875 0.8723
vt 0.0865 0.8723
vt 0.0865 0.8706
vt 0.0379 0.8741
vt 0.0388 0.8741
vt 0.0559 0.8759
vt 0.0565 0.8777
vt 0.0556 0.8777
vt 0.0550 0.8759
vt 0.0875 0.8688
vt 0.0865 0.8688
vt 0.0381 0.8759
vt 0.0390 0.8759
vt 0.0718 0.8759
vt 0.0724 0.8777
vt 0.0715 0.8777
vt 0.0709 0.8759
vt 0.1342 0.8676
vt 0.1342 0.8686
vt 0.1333 0.8691
vt 0.1324 0.8686
vt 0.1324 0.8676
vt 0.1333 0.8671
vt 0.0388 0.8777
vt 0.0397 0.8777
vt 0.0875 0.8777
vt 0.0865 0.8777
vt 0.0875 0.8671
vt 0.0865 0.8671
vt 0.0388 0.8671
vt 0.1175 0.8692
vt 0.1166 0.8686
vt 0.1166 0.8676
vt 0.1175 0.8671
vt 0.1184 0.8676
vt 0.1184 0.8686
vt 0.0715 0.8706
vt 0.0706 0.8706
vt 0.0715 0.8724
vt 0.0705 0.8724
vt 0.0715 0.8741
vt 0.0706 0.8741
vt 0.0565 0.8671
vt 0.0559 0.8689
vt 0.0550 0.8689
vt 0.0556 0.8671
vt 0.0556 0.8706
vt 0.0547 0.8706
vt 0.0555 0.8724
vt 0.0546 0.8724
vt 0.0556 0.8741
vt 0.0547 0.8741
vt 0.1015 0.8776
vt 0.1015 0.8759
vt 0.1026 0.8759
vt 0.1026 0.8776
vt 0.1015 0.8742
vt 0.1026 0.8742
vt 0.1015 0.8724
vt 0.1026 0.8724
vt 0.1015 0.8707
vt 0.1026 0.8707
vt 0.0400 0.8759
vt 0.0406 0.8777
vt 0.0397 0.8741
vt 0.0396 0.8724
vt 0.0397 0.8706
vn -1.0000 0.0000 0.0000
vn 0.0000 0.0000 -1.0000
vn 1.0000 0.0000 0.0000
vn 0.0000 0.0000 1.0000
vn 0.0000 1.0000 0.0000
vn 0.0000 -1.0000 0.0000
vn 0.0196 0.9997 -0.0109
vn 0.0197 0.4940 -0.8692
vn -0.1082 -0.5195 -0.8476
vn -0.2473 0.4759 0.8440
vn -0.0315 0.4889 -0.8718
vn -0.2253 -0.9743 0.0083
vn -0.1605 0.9869 -0.0128
vn -0.0705 0.4841 -0.8722
vn -0.1276 -0.5005 0.8563
vn -0.2605 0.9654 -0.0137
vn -0.1214 0.4767 -0.8706
vn 0.1082 0.5195 0.8476
vn 0.9925 0.1218 0.0099
vn -0.2280 0.4569 -0.8598
vn 0.2253 0.9743 -0.0083
vn -0.0826 0.9965 -0.0120
vn -0.4539 0.8909 -0.0151
vn 0.1276 0.5006 -0.8562
vn -0.9925 -0.1218 -0.0099
vn -0.1410 0.4960 0.8568
vn -0.0901 0.5034 0.8593
vn -0.0512 0.5082 0.8597
vn 0.0001 0.5133 0.8582
vn 0.2280 -0.4569 0.8598
vn 0.1214 -0.4767 0.8706
vn 0.0705 -0.4841 0.8722
vn 0.0315 -0.4889 0.8718
vn -0.0197 -0.4940 0.8692
vn 0.4539 -0.8909 0.0151
vn 0.2605 -0.9654 0.0137
vn 0.1605 -0.9869 0.0128
vn 0.0826 -0.9965 0.0120
vn -0.0196 -0.9997 0.0109
vn 0.2473 -0.4759 -0.8440
vn 0.1410 -0.4960 -0.8568
vn 0.0901 -0.5034 -0.8593
vn 0.0512 -0.5082 -0.8597
vn -0.0000 -0.5133 -0.8582
usemtl Room_Albedo_Mat
s off
f 1/1/1 2/2/1 4/3/1 3/4/1
f 3/5/2 4/6/2 8/7/2 7/8/2
f 7/9/3 8/10/3 6/11/3 5/12/3
f 5/13/4 6/14/4 2/15/4 1/16/4
f 8/17/5 4/18/5 2/19/5 6/20/5
f 9/21/3 11/22/3 12/23/3 10/24/3
f 11/25/4 15/26/4 16/27/4 12/28/4
f 15/29/1 13/30/1 14/31/1 16/32/1
f 13/33/2 9/34/2 10/35/2 14/36/2
f 11/37/5 9/38/5 13/39/5 15/40/5
f 16/41/6 14/42/6 10/43/6 12/44/6
f 26/45/1 18/46/1 20/47/1 25/48/1
f 25/49/2 20/50/2 24/51/2 27/52/2
f 27/53/3 24/54/3 22/55/3 28/56/3
f 28/57/4 22/58/4 18/59/4 26/60/4
f 17/61/3 19/62/3 29/63/3 30/64/3
f 33/65/1 34/66/1 41/67/1 42/68/1
f 19/69/6 17/70/6 26/71/6 25/72/6
f 23/73/6 19/74/6 25/75/6 27/76/6
f 21/77/6 23/78/6 27/79/6 28/80/6
f 17/81/6 21/82/6 28/83/6 26/84/6
f 29/85/6 31/86/6 32/87/6 30/88/6
f 21/89/2 17/90/2 30/91/2 32/92/2
f 19/93/4 23/94/4 31/95/4 29/96/4
f 23/97/1 21/98/1 32/99/1 31/100/1
f 40/101/1 39/102/1 47/103/1 48/104/1
f 43/105/3 44/106/3 38/107/3 37/108/3
f 42/109/6 43/110/6 37/111/6 33/112/6
f 44/113/5 41/114/5 34/115/5 38/116/5
f 36/117/2 35/118/2 42/119/2 41/120/2
f 35/121/2 39/122/2 43/123/2 42/124/2
f 40/125/2 36/126/2 41/127/2 44/128/2
f 39/129/2 40/130/2 44/131/2 43/132/2
f 46/133/2 45/134/2 48/135/2 47/136/2
f 39/137/5 35/138/5 46/139/5 47/140/5
f 36/141/6 40/142/6 48/143/6 45/144/6
f 35/145/3 36/146/3 45/147/3 46/148/3
f 82/149/7 81/150/7 86/151/7 87/152/7
f 87/153/8 86/154/8 65/155/8 64/156/8
f 65/155/9 52/157/9 54/158/9 66/159/9
f 57/160/10 80/161/10 85/162/10 59/163/10
f 88/164/11 87/153/11 64/156/11 63/165/11
f 66/166/12 54/167/12 56/168/12 71/169/12
f 84/170/13 83/171/13 88/172/13 89/173/13
f 89/174/14 88/164/14 63/165/14 49/175/14
f 71/176/15 56/177/15 58/178/15 76/179/15
f 85/180/16 84/170/16 89/173/16 90/181/16
f 90/182/17 89/174/17 49/175/17 50/183/17
f 76/184/18 58/185/18 60/186/18 81/187/18
f 54/188/19 52/189/19 62/190/19 60/191/19 58/192/19 56/193/19
f 61/194/20 90/182/20 50/183/20 51/195/20
f 81/150/21 60/196/21 62/197/21 86/151/21
f 83/171/22 82/149/22 87/152/22 88/172/22
f 59/198/23 85/180/23 90/181/23 61/199/23
f 86/154/24 62/200/24 52/157/24 65/155/24
f 51/201/25 53/202/25 55/203/25 57/204/25 59/205/25 61/206/25
f 80/161/26 79/207/26 84/208/26 85/162/26
f 79/207/27 78/209/27 83/210/27 84/208/27
f 78/209/28 77/211/28 82/212/28 83/210/28
f 77/211/29 76/184/29 81/187/29 82/212/29
f 55/213/30 75/214/30 80/215/30 57/216/30
f 75/214/31 74/217/31 79/218/31 80/215/31
f 74/217/32 73/219/32 78/220/32 79/218/32
f 73/219/33 72/221/33 77/222/33 78/220/33
f 72/221/34 71/176/34 76/179/34 77/222/34
f 53/223/35 70/224/35 75/225/35 55/226/35
f 70/224/36 69/227/36 74/228/36 75/225/36
f 69/227/37 68/229/37 73/230/37 74/228/37
f 68/229/38 67/231/38 72/232/38 73/230/38
f 67/231/39 66/166/39 71/169/39 72/232/39
f 51/195/40 50/183/40 70/233/40 53/234/40
f 50/183/41 49/175/41 69/235/41 70/233/41
f 49/175/42 63/165/42 68/236/42 69/235/42
f 63/165/43 64/156/43 67/237/43 68/236/43
f 64/156/44 65/155/44 66/159/44 67/237/44
